# xmcd
#
# Track frame offsets:
#	150
#	27416
#	38073
#	54291
#	64363
#	78110
#	88025
#	111069
#	125819
#	137435
#	153393
#	168003
#	185031
#	197817
#	215014
#	229186
#	243718
#
# Disc length: 3435 seconds
#
# Revision: 1
# Processed by: cddbd v1.5.2PL0 Copyright (c) Steve Scherf et al.
# Submitted via: EZCDAudioConverter 7.1.8.1
#
DISCID=ec0d6911
DTITLE=Various Artist - 黃霑傳世經典 萬載千秋橫特藏 CD1
DYEAR=2014
DGENRE=Miscellaneous
TTITLE0=張敬軒 - Blessing
TTITLE1=鄭中基 - 少年夢想
TTITLE2=潘迪華 - 愛你變成害你
TTITLE3=陳秋霞 - 點解[手牽手]
TTITLE4=鍾鎮濤@溫拿樂隊 - 今天我非常寂寞
TTITLE5=溫拿 - LOVE LOVE
TTITLE6=四朵金花 - 世界真細小
TTITLE7=陳麗斯 - 問我
TTITLE8=蕭芳芳 - 林亞珍
TTITLE9=袁麗嫦 - 鱷魚淚
TTITLE10=譚詠麟 - 不可以逃避
TTITLE11=羅文 - 獅子山下
TTITLE12=林子祥 - 抉擇
TTITLE13=張國榮 - 大亨
TTITLE14=關菊英 - 我是痴情無限
TTITLE15=葉麗儀 - 上海灘
TTITLE16=羅文 - 親情
EXTD=
EXTT0=
EXTT1=
EXTT2=
EXTT3=
EXTT4=
EXTT5=
EXTT6=
EXTT7=
EXTT8=
EXTT9=
EXTT10=
EXTT11=
EXTT12=
EXTT13=
EXTT14=
EXTT15=
EXTT16=
PLAYORDER=
